<?xml version="1.0" encoding="UTF-8" standalone="no"?>
<!DOCTYPE svg PUBLIC "-//W3C//DTD SVG 1.1//EN" "http://www.w3.org/Graphics/SVG/1.1/DTD/svg11.dtd">
<svg version="1.1" xmlns="http://www.w3.org/2000/svg" xmlns:xlink="http://www.w3.org/1999/xlink" preserveAspectRatio="xMidYMid meet" viewBox="187.28251866079927 220.53597371370887 221.93162270642227 221.93162270642216" width="221.93" height="221.93"><defs><path d="M409.21 331.5C409.21 392.75 359.49 442.47 298.25 442.47C237 442.47 187.28 392.75 187.28 331.5C187.28 270.26 237 220.54 298.25 220.54C359.49 220.54 409.21 270.26 409.21 331.5Z" id="d8fziG1ah"></path><path d="M312.08 279.33L313.66 279.48L315.22 279.69L316.77 279.95L318.28 280.26L319.78 280.63L321.25 281.05L322.7 281.52L324.12 282.04L325.52 282.61L326.88 283.23L328.21 283.9L329.51 284.61L330.78 285.36L332.02 286.16L333.22 287L334.38 287.88L335.5 288.8L336.59 289.76L337.63 290.75L338.63 291.78L339.59 292.85L340.51 293.95L341.38 295.08L342.2 296.24L342.97 297.44L343.7 298.66L344.37 299.91L344.99 301.19L345.56 302.49L346.08 303.82L346.53 305.17L346.94 306.55L347.28 307.94L347.56 309.36L347.79 310.79L347.95 312.24L348.04 313.71L348.08 315.19L348.04 316.67L347.95 318.14L347.79 319.59L347.56 321.02L347.28 322.43L346.94 323.83L346.53 325.2L346.08 326.55L345.56 327.88L344.99 329.18L344.37 330.46L343.7 331.71L342.97 332.93L342.2 334.13L341.38 335.29L340.51 336.43L339.59 337.53L338.63 338.59L337.63 339.62L336.59 340.62L335.5 341.58L334.38 342.49L333.22 343.37L332.02 344.21L330.78 345.01L329.51 345.77L328.21 346.48L326.88 347.14L325.52 347.76L324.12 348.33L322.7 348.85L321.25 349.32L319.78 349.74L318.28 350.11L316.77 350.43L315.22 350.69L313.66 350.89L312.08 351.04L310.48 351.13L308.87 351.16L308.87 351.16L252.75 351.16L252.75 279.22L308.87 279.22L310.48 279.25L312.08 279.33Z" id="bgRsH8ikE"></path><path d="M201.07 289.55L264.38 289.55L264.38 340.82L201.07 340.82L201.07 289.55Z" id="av6qGMGMa"></path><path d="M302.01 393.51L267.61 351.41L292.9 330.75L342.96 392.03L302.01 393.51Z" id="bGqz8npgY"></path><path d="M289.56 362.37L264.03 331.12L273.69 323.22L310.85 368.7L289.56 362.37Z" id="m4Rq82xqS"></path><path d="M234.06 316.51L276.49 317.82L275.76 341.47L233.33 340.16L234.06 316.51Z" id="a20sybmdDr"></path></defs><g><g><use xlink:href="#d8fziG1ah" opacity="1" fill="#57b6e6" fill-opacity="1"></use></g><g><g><use xlink:href="#bgRsH8ikE" opacity="1" fill="#57b6e6" fill-opacity="1"></use><g><use xlink:href="#bgRsH8ikE" opacity="1" fill-opacity="0" stroke="#ffffff" stroke-width="20" stroke-opacity="1"></use></g></g><g><use xlink:href="#av6qGMGMa" opacity="1" fill="#57b6e6" fill-opacity="1"></use></g><g><use xlink:href="#bGqz8npgY" opacity="1" fill="#57b6e6" fill-opacity="1"></use><g><use xlink:href="#bGqz8npgY" opacity="1" fill-opacity="0" stroke="#ffffff" stroke-width="20" stroke-opacity="1"></use></g></g><g><use xlink:href="#m4Rq82xqS" opacity="1" fill="#57b6e6" fill-opacity="1"></use><g><use xlink:href="#m4Rq82xqS" opacity="1" fill-opacity="0" stroke="#ffffff" stroke-width="0" stroke-opacity="1"></use></g></g><g><use xlink:href="#a20sybmdDr" opacity="1" fill="#57b6e6" fill-opacity="1"></use></g></g></g></svg>